<?xml version="1.0" standalone="no"?>
<!DOCTYPE svg PUBLIC "-//W3C//DTD SVG 20010904//EN"
 "http://www.w3.org/TR/2001/REC-SVG-20010904/DTD/svg10.dtd">
<svg version="1.0" xmlns="http://www.w3.org/2000/svg"
 width="512.000000pt" height="512.000000pt" viewBox="0 0 512.000000 512.000000"
 preserveAspectRatio="xMidYMid meet">
<metadata>
Created by potrace 1.11, written by Peter Selinger 2001-2013
</metadata>
<g transform="translate(0.000000,512.000000) scale(0.100000,-0.100000)"
fill="#000000" stroke="none">
<path d="M1280 3811 c-115 -35 -216 -140 -243 -250 -11 -49 -13 -50 -59 -62
-67 -15 -160 -79 -202 -136 -62 -85 -88 -196 -67 -285 l8 -36 -46 -18 c-60
-22 -149 -83 -189 -128 -132 -151 -163 -376 -76 -554 32 -65 122 -164 181
-198 23 -14 43 -28 43 -31 0 -2 -7 -27 -16 -54 -12 -35 -15 -72 -12 -128 6
-97 38 -170 106 -237 43 -44 157 -109 172 -99 4 2 10 42 13 89 7 104 51 241
110 345 82 146 266 309 404 361 179 66 266 182 266 352 0 64 -5 86 -30 140
-45 93 -117 158 -208 188 -37 12 -54 25 -55 41 0 4 20 9 44 11 24 3 68 17 98
30 190 87 264 315 161 495 -35 60 -115 128 -179 152 -56 22 -172 27 -224 12z"/>
<path d="M4420 2816 c-21 -6 -40 -21 -47 -37 -10 -19 -53 -337 -53 -386 0 -5
-33 -8 -73 -8 -87 -1 -145 -24 -212 -86 -37 -34 -65 -79 -135 -218 -190 -376
-331 -549 -677 -829 -199 -162 -228 -206 -228 -350 0 -75 -2 -83 -20 -87 -11
-2 -96 -7 -190 -10 -118 -5 -178 -11 -198 -21 -28 -15 -47 -49 -47 -84 0 -25
273 -436 299 -449 25 -14 67 -14 91 -1 10 5 69 91 131 190 84 133 118 179 129
174 38 -15 126 -25 163 -19 68 12 107 33 257 143 217 158 275 206 391 321 196
197 310 361 454 656 56 116 108 228 115 250 18 53 15 150 -4 205 -9 25 -18 49
-19 54 -1 5 79 35 178 67 196 63 215 76 215 138 0 29 -7 44 -32 67 -51 48
-405 313 -430 323 -14 5 -36 4 -58 -3z"/>
<path d="M1410 1940 l0 -90 90 0 90 0 0 90 0 90 -90 0 -90 0 0 -90z"/>
<path d="M1940 1940 l0 -90 90 0 90 0 0 90 0 90 -90 0 -90 0 0 -90z"/>
<path d="M2207 1764 c-4 -4 -7 -45 -7 -91 l0 -83 95 0 96 0 -3 88 -3 87 -85 3
c-47 1 -89 0 -93 -4z"/>
<path d="M1590 1590 l0 -90 90 0 90 0 0 90 0 90 -90 0 -90 0 0 -90z"/>
<path d="M1232 1323 l3 -88 88 -3 87 -3 0 91 0 90 -90 0 -91 0 3 -87z"/>
<path d="M1940 1320 l0 -90 90 0 90 0 0 90 0 90 -90 0 -90 0 0 -90z"/>
<path d="M1590 1060 l0 -90 90 0 90 0 0 90 0 90 -90 0 -90 0 0 -90z"/>
</g>
</svg>
